<svg xmlns="http://www.w3.org/2000/svg" xmlns:xlink="http://www.w3.org/1999/xlink" width="179.25" height="143.293" viewBox="0 0 179.25 143.293">
  <defs>
    <linearGradient id="linear-gradient" x1="0.5" x2="0.5" y2="1" gradientUnits="objectBoundingBox">
      <stop offset="0" stop-color="#ee8264"/>
      <stop offset="1" stop-color="#21026d"/>
    </linearGradient>
    <filter id="Path_51311" x="20.275" y="0.153" width="158.975" height="143.141" filterUnits="userSpaceOnUse">
      <feOffset dy="3" input="SourceAlpha"/>
      <feGaussianBlur stdDeviation="3" result="blur"/>
      <feFlood flood-opacity="0.161"/>
      <feComposite operator="in" in2="blur"/>
      <feComposite in="SourceGraphic"/>
    </filter>
    <filter id="Path_51312" x="20.275" y="0" width="154.075" height="143.141" filterUnits="userSpaceOnUse">
      <feOffset dy="3" input="SourceAlpha"/>
      <feGaussianBlur stdDeviation="3" result="blur-2"/>
      <feFlood flood-opacity="0.161"/>
      <feComposite operator="in" in2="blur-2"/>
      <feComposite in="SourceGraphic"/>
    </filter>
    <filter id="Path_51313" x="0" y="0.153" width="169.058" height="143.141" filterUnits="userSpaceOnUse">
      <feOffset dy="3" input="SourceAlpha"/>
      <feGaussianBlur stdDeviation="3" result="blur-3"/>
      <feFlood flood-opacity="0.161"/>
      <feComposite operator="in" in2="blur-3"/>
      <feComposite in="SourceGraphic"/>
    </filter>
  </defs>
  <g id="Group_4105" data-name="Group 4105" transform="translate(-176.75 -58.707)">
    <circle id="Ellipse_35" data-name="Ellipse 35" cx="59" cy="59" r="59" transform="translate(207.25 72)" fill="#fff"/>
    <g id="Group_4104" data-name="Group 4104" transform="translate(-16.75 -6.439)">
      <g transform="matrix(1, 0, 0, 1, 193.5, 65.15)" filter="url(#Path_51311)">
        <path id="Path_51311-2" data-name="Path 51311" d="M253.314,214.377c7.34,0,13.636,0,19.931,0,12.611.005,22.222-8.007,23.086-19.753.734-9.987-8.341-20.757-20.155-20.9-13.742-.164-23.635-3.359-37.38-3.421-1.118-.005.387.441,0,0-1.005-.313-1.318.592-1.394-2.96-.125-5.863-6.456-3.13,0-3.136,14.23-.014,24.553-3.807,38.774-3.485,17.474.4,34.782,13.9,35.179,30.784.329,14.044-5.358,24.538-17.533,32.069-3.856,2.385-8.618,3.493-13.221,5.284l21.053,32.731c3.122-5.076,5.857-9.443,8.511-13.852q18.271-30.348,36.5-60.718c4.877-8.124,9.6-16.331,14.6-24.39,2.162-3.488,7.921-4.673,11.172-2.835,3.62,2.047,3.707,7.347,1.852,10.507-10.5,17.89-21.213,35.676-31.863,53.492-11.034,18.46-21.987,36.963-33.249,55.3a11.982,11.982,0,0,1-6.672,4.8c-3.693.922-5.881-1.811-7.742-4.711-13.175-20.517-26.48-40.962-39.726-61.439C254.5,216.926,254.141,216.012,253.314,214.377Z" transform="translate(-205.23 -152.79)" opacity="0.75" fill="url(#linear-gradient)"/>
      </g>
      <g transform="matrix(1, 0, 0, 1, 193.5, 65.15)" filter="url(#Path_51312)">
        <path id="Path_51312-2" data-name="Path 51312" d="M252.194,219.767c7.34,0,14.543-5.391,20.838-5.389,12.611.005,22.222-8.007,23.086-19.753.734-9.987-8.341-20.757-20.155-20.9-13.742-.164-17.39-6.781-31.136-6.843-6.01-.027-1.3,6.372-1.394,2.008-.125-5.863-8.2-3.827-1.742-3.833,14.23-.014,20.05-5.582,34.272-5.26,17.474.4,34.782,14.822,35.179,31.71.329,14.044-5.358,24.538-17.533,32.069-3.856,2.385-8.618,3.493-13.221,5.284l21.053,32.731c3.122-5.076,5.857-9.443,8.511-13.852q18.271-30.348,36.5-60.718c4.877-8.124,9.6-16.331,14.6-24.39,2.162-3.488,7.921-4.673,11.172-2.835,3.62,2.047,3.707,7.347,1.852,10.507-10.5,17.89-21.213,35.676-31.863,53.492-11.034,18.46-21.987,36.963-33.249,55.3a11.982,11.982,0,0,1-6.672,4.8c-3.693.922-5.881-1.811-7.742-4.711-13.175-20.517-26.48-40.962-39.726-61.439C254.29,216.926,253.021,221.4,252.194,219.767Z" transform="translate(-209.92 -152.94)" opacity="0.97" fill="url(#linear-gradient)"/>
      </g>
      <g transform="matrix(1, 0, 0, 1, 193.5, 65.15)" filter="url(#Path_51313)">
        <path id="Path_51313-2" data-name="Path 51313" d="M253.935,214.377c7.4,0,13.754,0,20.1,0,12.721.005,22.415-8.007,23.287-19.753.74-9.987-8.413-20.757-20.331-20.9-13.862-.164-27.729,0-41.594-.059-6.062-.027-9.2-2.421-9.292-6.784-.069-3.178.477-5.172,2.3-6.52,1.04-.794,3.069-1.18,6.051-1.183,14.354-.014,28.715-.261,43.06.061,17.625.4,34.56,15.38,34.96,32.267.332,14.044-5.4,24.538-17.685,32.069-3.889,2.385-8.693,3.493-13.336,5.284l21.236,32.731c3.149-5.076,5.908-9.443,8.585-13.852q18.43-30.348,36.817-60.718c4.919-8.124,9.685-16.331,14.724-24.39,2.181-3.488,7.99-4.673,11.269-2.835,3.651,2.047,3.739,7.347,1.868,10.507-10.594,17.89-21.4,35.676-32.14,53.492-11.13,18.46-22.178,36.963-33.538,55.3a12.082,12.082,0,0,1-6.729,4.8c-3.726.922-5.932-1.811-7.81-4.711-13.289-20.517-26.71-40.962-40.071-61.439C255.134,216.926,254.769,216.012,253.935,214.377Z" transform="translate(-217.1 -152.79)" fill="url(#linear-gradient)"/>
      </g>
    </g>
  </g>
</svg>
