<svg xmlns="http://www.w3.org/2000/svg" xmlns:xlink="http://www.w3.org/1999/xlink" width="205.512" height="325.988" viewBox="0 0 205.512 325.988">
  <defs>
    <filter id="Rectangle_601">
      <feOffset dy="3" input="SourceAlpha"/>
      <feGaussianBlur stdDeviation="3" result="blur"/>
      <feFlood flood-opacity="0.161" result="color"/>
      <feComposite operator="out" in="SourceGraphic" in2="blur"/>
      <feComposite operator="in" in="color"/>
      <feComposite operator="in" in2="SourceGraphic"/>
    </filter>
    <filter id="Path_41390">
      <feOffset dy="3" input="SourceAlpha"/>
      <feGaussianBlur stdDeviation="3" result="blur-2"/>
      <feFlood flood-opacity="0.161" result="color-2"/>
      <feComposite operator="out" in="SourceGraphic" in2="blur-2"/>
      <feComposite operator="in" in="color-2"/>
      <feComposite operator="in" in2="SourceGraphic"/>
    </filter>
    <filter id="Path_41391">
      <feOffset dy="3" input="SourceAlpha"/>
      <feGaussianBlur stdDeviation="3" result="blur-3"/>
      <feFlood flood-opacity="0.161" result="color-3"/>
      <feComposite operator="out" in="SourceGraphic" in2="blur-3"/>
      <feComposite operator="in" in="color-3"/>
      <feComposite operator="in" in2="SourceGraphic"/>
    </filter>
    <filter id="Path_41392" x="71.327" y="121.336" width="134.185" height="169.951" filterUnits="userSpaceOnUse">
      <feOffset dy="3" input="SourceAlpha"/>
      <feGaussianBlur stdDeviation="3" result="blur-4"/>
      <feFlood flood-opacity="0.161"/>
      <feComposite operator="in" in2="blur-4"/>
      <feComposite in="SourceGraphic"/>
    </filter>
    <filter id="Path_41393" x="0" y="121.337" width="111.756" height="169.951" filterUnits="userSpaceOnUse">
      <feOffset dy="3" input="SourceAlpha"/>
      <feGaussianBlur stdDeviation="3" result="blur-5"/>
      <feFlood flood-opacity="0.161"/>
      <feComposite operator="in" in2="blur-5"/>
      <feComposite in="SourceGraphic"/>
    </filter>
  </defs>
  <g id="Group_3932" data-name="Group 3932" transform="translate(-84.744 -52.492)">
    <g data-type="innerShadowGroup">
      <rect id="Rectangle_601-2" data-name="Rectangle 601" width="124.78" height="40.441" rx="11" transform="translate(125.11 313.059)" fill="#ededed"/>
      <g transform="matrix(1, 0, 0, 1, 84.74, 52.49)" filter="url(#Rectangle_601)">
        <rect id="Rectangle_601-3" data-name="Rectangle 601" width="124.78" height="40.441" rx="11" transform="translate(40.37 260.57)" fill="#fff"/>
      </g>
    </g>
    <g id="Group_3929" data-name="Group 3929" transform="translate(-772.256 -27.742)">
      <g id="forgot-password" transform="translate(866 104.329)">
        <g data-type="innerShadowGroup">
          <path id="Path_41390-2" data-name="Path 41390" d="M233.429,0,211,15.883l22.429,15.883a30.178,30.178,0,0,1,30.179,30.179v63.726h31.767V61.945A61.945,61.945,0,0,0,233.429,0Z" transform="translate(-139.673 0)" fill="#f3f3f3"/>
          <g transform="matrix(1, 0, 0, 1, -9, -24.09)" filter="url(#Path_41390)">
            <path id="Path_41390-3" data-name="Path 41390" d="M233.429,0,211,15.883l22.429,15.883a30.178,30.178,0,0,1,30.179,30.179v63.726h31.767V61.945A61.945,61.945,0,0,0,233.429,0Z" transform="translate(-130.67 24.09)" fill="#fff"/>
          </g>
        </g>
        <g data-type="innerShadowGroup">
          <path id="Path_41391-2" data-name="Path 41391" d="M131.718,61.945v63.726h31.766V61.945a30.178,30.178,0,0,1,30.179-30.179V0a61.945,61.945,0,0,0-61.945,61.945Z" transform="translate(-99.907 0)" fill="#f3f3f3"/>
          <g transform="matrix(1, 0, 0, 1, -9, -24.09)" filter="url(#Path_41391)">
            <path id="Path_41391-3" data-name="Path 41391" d="M131.718,61.945v63.726h31.766V61.945a30.178,30.178,0,0,1,30.179-30.179V0a61.945,61.945,0,0,0-61.945,61.945Z" transform="translate(-90.91 24.09)" fill="#fff"/>
          </g>
        </g>
        <g transform="matrix(1, 0, 0, 1, -9, -24.09)" filter="url(#Path_41392)">
          <path id="Path_41392-2" data-name="Path 41392" d="M233.429,207.137l-22.429,72,22.429,72h50.077l11.913,7.942h31.766V207.137Z" transform="translate(-130.67 -79.8)" fill="#f99377"/>
        </g>
        <g transform="matrix(1, 0, 0, 1, -9, -24.09)" filter="url(#Path_41393)">
          <path id="Path_41393-2" data-name="Path 41393" d="M67.895,207.137V359.088H99.661l11.913-7.942h50.077V207.137Z" transform="translate(-58.89 -79.8)" fill="#ee8264"/>
        </g>
      </g>
      <g id="Group_3260" data-name="Group 3260" transform="translate(906 239.703)">
        <path id="Path_41389" data-name="Path 41389" d="M246.058,199.033c5.309,0,9.862,0,14.415,0,9.121,0,16.072-5.791,16.7-14.286.531-7.223-6.032-15.012-14.577-15.114-9.939-.119-19.881,0-29.822-.043-4.346-.02-6.595-1.751-6.662-4.907-.091-4.24,1.318-5.566,5.987-5.571,10.292-.01,20.588-.189,30.873.044,12.637.286,24.779,11.123,25.066,23.336.238,10.157-3.875,17.746-12.68,23.193-2.789,1.725-6.233,2.526-9.561,3.822l15.226,23.672c2.258-3.671,4.236-6.829,6.155-10.018q13.214-21.948,26.4-43.913c3.527-5.876,6.944-11.811,10.557-17.639,1.564-2.523,5.729-3.38,8.08-2.05,2.618,1.481,2.681,5.314,1.339,7.6-7.6,12.939-15.342,25.8-23.044,38.686-7.98,13.35-15.9,26.732-24.046,39.995a8.666,8.666,0,0,1-4.825,3.47c-2.671.667-4.253-1.31-5.6-3.407-9.528-14.838-19.151-29.624-28.731-44.434C246.918,200.876,246.656,200.215,246.058,199.033Z" transform="translate(-226.104 -158.939)" fill="#fff"/>
      </g>
    </g>
    <g id="Group_3930" data-name="Group 3930" transform="translate(0 21.72)">
      <line id="Line_20" data-name="Line 20" y2="10.866" transform="translate(157.235 310.059)" fill="none" stroke="#c9c9c9" stroke-linecap="square" stroke-width="2.52"/>
      <line id="Line_21" data-name="Line 21" x1="9.287" y2="5.646" transform="translate(152.591 312.669)" fill="none" stroke="#c9c9c9" stroke-linecap="square" stroke-width="2.52"/>
      <line id="Line_22" data-name="Line 22" x2="9.287" y2="5.646" transform="translate(152.591 312.669)" fill="none" stroke="#c9c9c9" stroke-linecap="square" stroke-width="2.52"/>
      <line id="Line_23" data-name="Line 23" y2="10.866" transform="translate(177.414 310.059)" fill="none" stroke="#c9c9c9" stroke-linecap="square" stroke-width="2.52"/>
      <line id="Line_24" data-name="Line 24" x1="9.287" y2="5.646" transform="translate(172.77 312.669)" fill="none" stroke="#c9c9c9" stroke-linecap="square" stroke-width="2.52"/>
      <line id="Line_25" data-name="Line 25" x2="9.287" y2="5.646" transform="translate(172.77 312.669)" fill="none" stroke="#c9c9c9" stroke-linecap="square" stroke-width="2.52"/>
      <line id="Line_26" data-name="Line 26" y2="10.866" transform="translate(197.589 310.059)" fill="none" stroke="#c9c9c9" stroke-linecap="square" stroke-width="2.52"/>
      <line id="Line_27" data-name="Line 27" x1="9.287" y2="5.646" transform="translate(192.946 312.669)" fill="none" stroke="#c9c9c9" stroke-linecap="square" stroke-width="2.52"/>
      <line id="Line_28" data-name="Line 28" x2="9.287" y2="5.646" transform="translate(192.946 312.669)" fill="none" stroke="#c9c9c9" stroke-linecap="square" stroke-width="2.52"/>
      <line id="Line_29" data-name="Line 29" y2="10.866" transform="translate(217.765 310.059)" fill="none" stroke="#c9c9c9" stroke-linecap="square" stroke-width="2.52"/>
      <line id="Line_30" data-name="Line 30" x1="9.287" y2="5.646" transform="translate(213.121 312.669)" fill="none" stroke="#c9c9c9" stroke-linecap="square" stroke-width="2.52"/>
      <line id="Line_31" data-name="Line 31" x2="9.287" y2="5.646" transform="translate(213.121 312.669)" fill="none" stroke="#c9c9c9" stroke-linecap="square" stroke-width="2.52"/>
    </g>
    <g id="Group_3931" data-name="Group 3931" transform="translate(124.179 54.992)" opacity="0.36">
      <line id="Line_1" data-name="Line 1" x1="30.104" transform="translate(96.538)" fill="#f06698" stroke="#b1b1b1" stroke-linecap="round" stroke-width="5"/>
      <path id="Path_38124" data-name="Path 38124" d="M66.505,0H0" transform="translate(30.068 321.008)" fill="#f3f3f3" stroke="#e3e3e3" stroke-linecap="round" stroke-width="4.96"/>
      <line id="Line_3" data-name="Line 3" x1="15.052" fill="#f06698" stroke="#b1b1b1" stroke-linecap="round" stroke-width="5"/>
      <line id="Line_4" data-name="Line 4" x1="5.997" transform="translate(23.953)" fill="#f06698" stroke="#b1b1b1" stroke-linecap="round" stroke-width="5"/>
    </g>
  </g>
</svg>
