<svg xmlns="http://www.w3.org/2000/svg" xmlns:xlink="http://www.w3.org/1999/xlink" width="207.5" height="194.261" viewBox="0 0 207.5 194.261">
  <defs>
    <linearGradient id="linear-gradient" x1="0.5" x2="0.5" y2="1" gradientUnits="objectBoundingBox">
      <stop offset="0" stop-color="#ebad6c"/>
      <stop offset="1" stop-color="#e97f65"/>
    </linearGradient>
  </defs>
  <g id="password" transform="translate(-0.001 -16.334)">
    <g id="Group_4094" data-name="Group 4094" transform="translate(0.001 16.334)">
      <path id="Path_51297" data-name="Path 51297" d="M119.121,132.58a12.034,12.034,0,0,1-11.2,11.57c-5.75.42-11.555.637-17.249.637s-11.494-.217-17.244-.637a12.03,12.03,0,0,1-11.2-11.57c-.92-26.873-.92-54.095,0-80.907a12.03,12.03,0,0,1,11.2-11.57c5.75-.42,11.555-.637,17.249-.637s11.5.217,17.255.637a12.035,12.035,0,0,1,11.2,11.57q.2,5.947.344,11.914h23.136q-.144-6.372-.364-12.708a35.118,35.118,0,0,0-32.618-33.846c-6.316-.465-12.688-.7-18.949-.7s-12.632.233-18.943.7A35.127,35.127,0,0,0,39.11,50.879c-.935,27.338-.935,55.09,0,82.489A35.123,35.123,0,0,0,71.733,167.22c6.311.465,12.688.7,18.943.7s12.632-.233,18.949-.7a35.131,35.131,0,0,0,32.618-33.851q.114-3.391.212-6.8H119.309q-.083,3.012-.187,6.008Z" transform="translate(-22.843 -16.335)" fill="#665e66"/>
      <g id="Group_4093" data-name="Group 4093" transform="translate(15.569)">
        <path id="Path_51298" data-name="Path 51298" d="M193.195,74.047c-3.8-.278-7.621-.455-11.419-.551,1.952-.051,3.9-.086,5.836-.086,5.694,0,11.5.217,17.249.637a12.03,12.03,0,0,1,11.2,11.57q.2,5.947.344,11.914H204.734q-.144-5.97-.344-11.914a12.031,12.031,0,0,0-11.2-11.57Z" transform="translate(-123.676 -50.279)" fill="#544f57"/>
        <path id="Path_51299" data-name="Path 51299" d="M83.405,167.219A35.126,35.126,0,0,1,50.788,133.37c-.937-27.4-.939-55.152,0-82.489A35.125,35.125,0,0,1,83.4,17.033c4.362-.321,8.751-.524,13.113-.624-1.951-.045-3.9-.075-5.833-.075-6.258,0-12.632.235-18.947.7a35.125,35.125,0,0,0-32.62,33.848c-.935,27.338-.935,55.092,0,82.489a35.127,35.127,0,0,0,32.618,33.849c6.313.464,12.687.7,18.945.7,1.935,0,3.882-.03,5.833-.075C92.156,167.743,87.767,167.539,83.405,167.219Z" transform="translate(-38.417 -16.334)" fill="#544f57"/>
      </g>
      <path id="Path_51300" data-name="Path 51300" d="M67.835,298.98c-15.31,0-30.749-.444-46.163-1.325A21.939,21.939,0,0,1,1.036,277.134a517.633,517.633,0,0,1,0-65.367,21.937,21.937,0,0,1,20.636-20.519c15.4-.879,30.859-1.324,46.168-1.324s30.769.444,46.168,1.324a21.937,21.937,0,0,1,20.636,20.519,517.632,517.632,0,0,1,0,65.367A21.939,21.939,0,0,1,114,297.655C98.584,298.536,83.145,298.98,67.835,298.98Z" transform="translate(-0.001 -119.573)" fill="url(#linear-gradient)"/>
    </g>
    <g id="Group_4096" data-name="Group 4096" transform="translate(49.142 143.411)">
      <path id="Path_51302" data-name="Path 51302" d="M266.106,397.373q-61.155,2.287-122.309,0a14.266,14.266,0,0,1-13.512-11.979,106.135,106.135,0,0,1,0-34.78A14.266,14.266,0,0,1,143.8,338.635q61.155-2.287,122.309,0a14.265,14.265,0,0,1,13.512,11.979,106.135,106.135,0,0,1,0,34.78A14.265,14.265,0,0,1,266.106,397.373Z" transform="translate(-125.772 -334.412)" fill="#fff"/>
      <path id="Path_51303" data-name="Path 51303" d="M200.435,397.076c-20.471,0-40.942-.38-61.27-1.14a17.414,17.414,0,0,1-16.44-14.56,109.7,109.7,0,0,1,0-35.784,17.414,17.414,0,0,1,16.44-14.56c40.656-1.52,81.885-1.52,122.54,0a17.414,17.414,0,0,1,16.44,14.56,109.7,109.7,0,0,1,0,35.784,17.413,17.413,0,0,1-16.44,14.56C241.377,396.7,220.906,397.076,200.435,397.076Zm61.155-4.223h0Zm-61.155-56.792c-20.394,0-40.788.379-61.039,1.136a11.224,11.224,0,0,0-10.583,9.4,103.535,103.535,0,0,0,0,33.776,11.224,11.224,0,0,0,10.584,9.4c40.5,1.515,81.576,1.515,122.079,0a11.224,11.224,0,0,0,10.583-9.4,103.534,103.534,0,0,0,0-33.776,11.224,11.224,0,0,0-10.583-9.4C241.223,336.44,220.828,336.062,200.435,336.062Z" transform="translate(-121.255 -329.892)" fill="#dddde9"/>
      <g id="Group_4095" data-name="Group 4095" transform="translate(33.606 21.789)">
        <path id="Path_51304" data-name="Path 51304" d="M172.074,376.392a2.124,2.124,0,0,0-2.9-.778l-5.195,3v-6a2.125,2.125,0,0,0-4.249,0v6l-5.2-3a2.125,2.125,0,0,0-2.125,3.68l5.2,3-5.2,3a2.124,2.124,0,1,0,2.125,3.68l5.2-3v6a2.125,2.125,0,0,0,4.249,0v-6l5.195,3a2.124,2.124,0,0,0,2.125-3.68l-5.2-3,5.2-3A2.124,2.124,0,0,0,172.074,376.392Z" transform="translate(-151.346 -370.49)" fill="#25056d"/>
        <path id="Path_51305" data-name="Path 51305" d="M255.834,376.392a2.124,2.124,0,0,0-2.9-.778l-5.2,3v-6a2.125,2.125,0,0,0-4.249,0v6l-5.2-3a2.124,2.124,0,0,0-2.125,3.68l5.2,3-5.2,3a2.124,2.124,0,1,0,2.125,3.68l5.2-3v6a2.125,2.125,0,1,0,4.249,0v-6l5.2,3a2.124,2.124,0,1,0,2.125-3.68l-5.2-3,5.2-3A2.125,2.125,0,0,0,255.834,376.392Z" transform="translate(-211.728 -370.49)" fill="#25056d"/>
        <path id="Path_51306" data-name="Path 51306" d="M339.594,376.392a2.124,2.124,0,0,0-2.9-.778l-5.2,3v-6a2.125,2.125,0,0,0-4.249,0v6l-5.2-3a2.124,2.124,0,0,0-2.125,3.68l5.2,3-5.2,3a2.124,2.124,0,1,0,2.125,3.68l5.2-3v6a2.125,2.125,0,1,0,4.249,0v-6l5.2,3a2.124,2.124,0,1,0,2.125-3.68l-5.2-3,5.2-3A2.124,2.124,0,0,0,339.594,376.392Z" transform="translate(-272.111 -370.49)" fill="#25056d"/>
        <path id="Path_51307" data-name="Path 51307" d="M422.579,385.292l-5.2-3,5.2-3a2.124,2.124,0,1,0-2.125-3.68l-5.195,3v-6a2.125,2.125,0,1,0-4.249,0v6l-5.2-3a2.124,2.124,0,1,0-2.125,3.68l5.2,3-5.2,3a2.124,2.124,0,1,0,2.125,3.68l5.2-3v6a2.125,2.125,0,0,0,4.249,0v-6l5.195,3a2.124,2.124,0,1,0,2.125-3.679Z" transform="translate(-332.495 -370.489)" fill="#25056d"/>
      </g>
    </g>
    <g id="Group_4097" data-name="Group 4097" transform="translate(127.63 51.234)">
      <path id="Path_51308" data-name="Path 51308" d="M318.005,121.2a3.086,3.086,0,0,1-2.787-4.4l5.95-12.58a3.085,3.085,0,1,1,5.577,2.638l-5.95,12.58A3.085,3.085,0,0,1,318.005,121.2Z" transform="translate(-314.922 -102.449)" fill="#ee8264"/>
    </g>
    <g id="Group_4098" data-name="Group 4098" transform="translate(133.633 80.593)">
      <path id="Path_51309" data-name="Path 51309" d="M345.4,187.014a3.067,3.067,0,0,1-1.317-.3l-12.58-5.95a3.085,3.085,0,1,1,2.638-5.577l12.58,5.95a3.085,3.085,0,0,1-1.321,5.874Z" transform="translate(-329.735 -174.892)" fill="#ee8264"/>
    </g>
    <g id="Group_4099" data-name="Group 4099" transform="translate(134.106 66.272)">
      <path id="Path_51310" data-name="Path 51310" d="M333.989,150.414a3.085,3.085,0,0,1-1.039-5.99l13.1-4.688a3.085,3.085,0,0,1,2.078,5.809l-13.1,4.688A3.083,3.083,0,0,1,333.989,150.414Z" transform="translate(-330.903 -139.554)" fill="#ee8264"/>
    </g>
  </g>
</svg>
