<svg xmlns="http://www.w3.org/2000/svg" width="21.141" height="25.917" viewBox="0 0 21.141 25.917">
  <g id="apple-black-logo" transform="translate(-46.315)">
    <g id="Group_3724" data-name="Group 3724" transform="translate(46.315)">
      <path id="Path_51013" data-name="Path 51013" d="M63.987,129.3c-.713-3.588,2.693-5.692,2.693-5.692a6.507,6.507,0,0,0-3.557-2.413,6.2,6.2,0,0,0-4.458.587,4.965,4.965,0,0,1-1.67.465c-1.608,0-2.784-1.7-5.848-.928-2.111.533-4.333,2.97-4.735,5.878a15.941,15.941,0,0,0,2.135,9.5c1.67,2.879,3.372,3.962,4.58,3.993s2.413-.865,3.867-1.083,2.35.527,3.777.929,1.92.029,3.557-1.364,3.127-5.386,3.127-5.386A5.768,5.768,0,0,1,63.987,129.3Z" transform="translate(-46.315 -114.77)"/>
      <path id="Path_51014" data-name="Path 51014" d="M255.857,4.1A4.905,4.905,0,0,0,256.9,0a7.565,7.565,0,0,0-3.7,1.935,5.574,5.574,0,0,0-1.239,3.99A6.978,6.978,0,0,0,255.857,4.1Z" transform="translate(-241.342)"/>
    </g>
  </g>
</svg>
