<svg xmlns="http://www.w3.org/2000/svg" xmlns:xlink="http://www.w3.org/1999/xlink" width="52" height="52" viewBox="0 0 52 52">
  <defs>
    <filter id="Subtraction_1" x="0" y="0" width="52" height="52" filterUnits="userSpaceOnUse">
      <feOffset dy="3" input="SourceAlpha"/>
      <feGaussianBlur stdDeviation="3" result="blur"/>
      <feFlood flood-opacity="0.161"/>
      <feComposite operator="in" in2="blur"/>
      <feComposite in="SourceGraphic"/>
    </filter>
  </defs>
  <g id="discount_2_" data-name="discount (2)" transform="translate(9 6)">
    <g id="Group_3926" data-name="Group 3926" transform="translate(0 0)">
      <g transform="matrix(1, 0, 0, 1, -9, -6)" filter="url(#Subtraction_1)">
        <path id="Subtraction_1-2" data-name="Subtraction 1" d="M-1387-1321a2.829,2.829,0,0,1-2.246-1.56,2.8,2.8,0,0,0-2.337-1.225,2.674,2.674,0,0,0-1.194.277,3.664,3.664,0,0,1-1.622.445,2.1,2.1,0,0,1-1.066-.279,2.746,2.746,0,0,1-1.2-2.411,2.812,2.812,0,0,0-2.585-2.586,2.751,2.751,0,0,1-2.413-1.2,2.745,2.745,0,0,1,.167-2.689,2.812,2.812,0,0,0-.946-3.532,2.816,2.816,0,0,1-1.555-2.246,2.82,2.82,0,0,1,1.553-2.245,2.813,2.813,0,0,0,.948-3.532,2.742,2.742,0,0,1-.167-2.688,2.75,2.75,0,0,1,2.412-1.2,2.81,2.81,0,0,0,2.585-2.585,2.751,2.751,0,0,1,1.2-2.412,2.112,2.112,0,0,1,1.068-.278,3.659,3.659,0,0,1,1.621.444,2.68,2.68,0,0,0,1.2.277,2.8,2.8,0,0,0,2.336-1.223A2.884,2.884,0,0,1-1387-1355a2.884,2.884,0,0,1,2.246,1.548,2.8,2.8,0,0,0,2.338,1.222,2.674,2.674,0,0,0,1.193-.276,3.65,3.65,0,0,1,1.619-.444,2.12,2.12,0,0,1,1.069.278,2.746,2.746,0,0,1,1.2,2.411,2.812,2.812,0,0,0,2.585,2.586,2.75,2.75,0,0,1,2.412,1.2,2.739,2.739,0,0,1-.166,2.688,2.81,2.81,0,0,0,.946,3.531,2.827,2.827,0,0,1,1.555,2.247,2.818,2.818,0,0,1-1.555,2.246,2.812,2.812,0,0,0-.946,3.532,2.745,2.745,0,0,1,.167,2.689,2.751,2.751,0,0,1-2.412,1.2,2.812,2.812,0,0,0-2.586,2.584,2.748,2.748,0,0,1-1.2,2.413,2.1,2.1,0,0,1-1.067.279,3.656,3.656,0,0,1-1.622-.445,2.654,2.654,0,0,0-1.2-.28,2.8,2.8,0,0,0-2.335,1.227A2.831,2.831,0,0,1-1387-1321Zm3.983-14.019a2.991,2.991,0,0,0-2.987,2.989,2.991,2.991,0,0,0,2.987,2.988,2.992,2.992,0,0,0,2.99-2.988A2.993,2.993,0,0,0-1383.016-1335.02Zm1.2-11.554h0l-11.953,15.937,1.593,1.2,11.953-15.937-1.593-1.2Zm-9.165-.4a2.991,2.991,0,0,0-2.988,2.988,2.992,2.992,0,0,0,2.988,2.989,2.992,2.992,0,0,0,2.989-2.989A2.992,2.992,0,0,0-1390.984-1346.972Z" transform="translate(1413 1361)" fill="#fff"/>
      </g>
    </g>
  </g>
</svg>
