<svg xmlns="http://www.w3.org/2000/svg" width="24.5" height="24.5" viewBox="0 0 24.5 24.5">
  <g id="google" transform="translate(-23 -21)">
    <path id="Path_51209" data-name="Path 51209" d="M277.492,213.9H267.5a.8.8,0,0,0-.8.8v3.195a.8.8,0,0,0,.8.8h5.629a7.5,7.5,0,0,1-3.232,3.788l2.4,4.155a12.015,12.015,0,0,0,6.122-10.5,8.275,8.275,0,0,0-.136-1.569A.807.807,0,0,0,277.492,213.9Z" transform="translate(-230.915 -182.78)" fill="#167ee6"/>
    <path id="Path_51210" data-name="Path 51210" d="M65,329.23a7.454,7.454,0,0,1-6.448-3.73L54.4,327.892a12.239,12.239,0,0,0,16.73,4.491v-.005l-2.4-4.155A7.391,7.391,0,0,1,65,329.23Z" transform="translate(-29.753 -288.525)" fill="#12b347"/>
    <path id="Path_51211" data-name="Path 51211" d="M262.622,381.56v-.005l-2.4-4.155a7.411,7.411,0,0,1-3.725,1.007v4.8A12.2,12.2,0,0,0,262.622,381.56Z" transform="translate(-221.25 -337.702)" fill="#0f993e"/>
    <path id="Path_51212" data-name="Path 51212" d="M27.8,144.017a7.411,7.411,0,0,1,1.007-3.725L24.647,137.9a12.181,12.181,0,0,0,0,12.234l4.155-2.392A7.358,7.358,0,0,1,27.8,144.017Z" transform="translate(0 -110.767)" fill="#ffd500"/>
    <path id="Path_51213" data-name="Path 51213" d="M65,25.8a7.424,7.424,0,0,1,4.732,1.7.8.8,0,0,0,1.07-.047l2.261-2.261a.8.8,0,0,0-.047-1.175A12.209,12.209,0,0,0,54.4,27.133l4.155,2.392A7.454,7.454,0,0,1,65,25.8Z" transform="translate(-29.753)" fill="#ff4b26"/>
    <path id="Path_51214" data-name="Path 51214" d="M261.232,27.495a.8.8,0,0,0,1.07-.047l2.261-2.261a.8.8,0,0,0-.047-1.175A12.173,12.173,0,0,0,256.5,21v4.8A7.394,7.394,0,0,1,261.232,27.495Z" transform="translate(-221.25)" fill="#d93f21"/>
  </g>
</svg>
