<svg xmlns="http://www.w3.org/2000/svg" width="24.827" height="24.827" viewBox="0 0 24.827 24.827">
  <path id="Path_51318" data-name="Path 51318" d="M25.178,7.191,15.93,2.227a3.2,3.2,0,0,0-3.032,0L3.649,7.191A3.135,3.135,0,0,0,2,9.954V23.532a3.157,3.157,0,0,0,3.174,3.14H23.661a3.157,3.157,0,0,0,3.165-3.14V9.954a3.135,3.135,0,0,0-1.649-2.763Zm-5.542,12.28a5.331,5.331,0,0,1-10.445,0,.871.871,0,0,1,.208-.707.891.891,0,0,1,.679-.3h0a.884.884,0,0,1,.887.728,3.555,3.555,0,0,0,6.943,0,.871.871,0,0,1,1.525-.419.871.871,0,0,1,.2.673Z" transform="translate(-2 -1.845)" fill="#fff"/>
</svg>
