<svg xmlns="http://www.w3.org/2000/svg" width="24.894" height="24.913" viewBox="0 0 24.894 24.913">
  <g id="ranking_2_" data-name="ranking (2)" transform="translate(0)">
    <g id="Group_4108" data-name="Group 4108" transform="translate(0 17.679)">
      <g id="Group_4107" data-name="Group 4107">
        <path id="Path_51319" data-name="Path 51319" d="M7.379,30.935h-5.6A.837.837,0,0,1,1,30.157V24.478a.78.78,0,0,1,.778-.778H7.224v6.457A2.764,2.764,0,0,0,7.379,30.935Z" transform="translate(-1 -23.7)" fill="#5d5b5b"/>
      </g>
    </g>
    <g id="Group_4110" data-name="Group 4110" transform="translate(7.779 14.022)">
      <g id="Group_4109" data-name="Group 4109">
        <path id="Path_51320" data-name="Path 51320" d="M20.335,19.778v9.335a.837.837,0,0,1-.778.778H11.778A.837.837,0,0,1,11,29.113V19.778A.78.78,0,0,1,11.778,19h7.779A.78.78,0,0,1,20.335,19.778Z" transform="translate(-11 -19)" fill="#5d5b5b"/>
      </g>
    </g>
    <g id="Group_4112" data-name="Group 4112" transform="translate(18.515 18.69)">
      <g id="Group_4111" data-name="Group 4111">
        <path id="Path_51321" data-name="Path 51321" d="M31.179,25.778v4.668a.837.837,0,0,1-.778.778H24.8a2.764,2.764,0,0,0,.156-.778V25H30.4A.78.78,0,0,1,31.179,25.778Z" transform="translate(-24.8 -25)" fill="#5d5b5b"/>
      </g>
    </g>
    <g id="Group_4114" data-name="Group 4114" transform="translate(5.96)">
      <g id="Group_4113" data-name="Group 4113">
        <path id="Path_51322" data-name="Path 51322" d="M21.449,6.44,18.882,8.929l.622,3.579a.74.74,0,0,1-.311.778,1.1,1.1,0,0,1-.856.078l-3.19-1.711-3.19,1.634a.6.6,0,0,1-.778-.078.74.74,0,0,1-.311-.778l.622-3.579L8.847,6.44a.85.85,0,0,1-.156-.778.754.754,0,0,1,.622-.545l3.579-.545,1.556-3.19a.8.8,0,0,1,1.4,0L17.4,4.573l3.579.545a.754.754,0,0,1,.622.545.85.85,0,0,1-.156.778Z" transform="translate(-8.661 -0.975)" fill="#5d5b5b"/>
      </g>
    </g>
  </g>
</svg>
