<svg xmlns="http://www.w3.org/2000/svg" width="25" height="25" viewBox="0 0 25 25">
  <g id="discount_2_" data-name="discount (2)" transform="translate(-0.019 0)">
    <g id="Group_3926" data-name="Group 3926" transform="translate(0 0)">
      <path id="Subtraction_1" data-name="Subtraction 1" d="M12.5,25a2.08,2.08,0,0,1-1.652-1.147,2.06,2.06,0,0,0-1.718-.9,1.966,1.966,0,0,0-.878.2,2.7,2.7,0,0,1-1.193.327,1.547,1.547,0,0,1-.784-.2,2.02,2.02,0,0,1-.883-1.773,2.067,2.067,0,0,0-1.9-1.9,2.023,2.023,0,0,1-1.774-.883,2.019,2.019,0,0,1,.122-1.977,2.068,2.068,0,0,0-.7-2.6A2.071,2.071,0,0,1,0,12.495a2.074,2.074,0,0,1,1.142-1.651,2.069,2.069,0,0,0,.7-2.6,2.016,2.016,0,0,1-.122-1.977A2.022,2.022,0,0,1,3.49,5.386a2.066,2.066,0,0,0,1.9-1.9,2.023,2.023,0,0,1,.883-1.774,1.553,1.553,0,0,1,.785-.2,2.691,2.691,0,0,1,1.192.326,1.97,1.97,0,0,0,.879.2,2.061,2.061,0,0,0,1.718-.9A2.121,2.121,0,0,1,12.5,0a2.12,2.12,0,0,1,1.652,1.138,2.059,2.059,0,0,0,1.719.9,1.967,1.967,0,0,0,.878-.2,2.684,2.684,0,0,1,1.19-.326,1.559,1.559,0,0,1,.786.2,2.019,2.019,0,0,1,.883,1.773,2.068,2.068,0,0,0,1.9,1.9,2.022,2.022,0,0,1,1.773.883,2.014,2.014,0,0,1-.122,1.977,2.066,2.066,0,0,0,.7,2.6A2.079,2.079,0,0,1,25,12.495a2.072,2.072,0,0,1-1.143,1.652,2.067,2.067,0,0,0-.7,2.6,2.019,2.019,0,0,1,.122,1.977,2.023,2.023,0,0,1-1.774.883,2.067,2.067,0,0,0-1.9,1.9,2.02,2.02,0,0,1-.883,1.774,1.546,1.546,0,0,1-.784.2,2.688,2.688,0,0,1-1.192-.327,1.951,1.951,0,0,0-.879-.206,2.059,2.059,0,0,0-1.717.9A2.082,2.082,0,0,1,12.5,25Zm2.929-10.308a2.2,2.2,0,1,0,2.2,2.2A2.2,2.2,0,0,0,15.429,14.692Zm.88-8.5h0L7.52,17.915l1.171.879L17.48,7.075,16.309,6.2ZM9.57,5.9a2.2,2.2,0,1,0,2.2,2.2A2.2,2.2,0,0,0,9.57,5.9Z" transform="translate(0.019 0)" fill="#5d5b5b"/>
    </g>
  </g>
</svg>
