<svg xmlns="http://www.w3.org/2000/svg" width="69" height="69" viewBox="0 0 69 69">
  <g id="Group_4182" data-name="Group 4182" transform="translate(-279 -260)">
    <g id="sale_1_" data-name="sale (1)" transform="translate(279 260)">
      <path id="Path_51344" data-name="Path 51344" d="M65.229,39.068,69,35.564l-3.561-3.718L68.3,27.567l-4.322-2.8,1.8-4.824-4.851-1.724.637-5.108-5.118-.559-.559-5.118-5.108.637L49.053,3.225l-4.824,1.8L41.433.7,37.154,3.561,33.436,0l-3.5,3.771L25.493,1.163l-2.54,4.478-4.92-1.514L16.594,9.07l-5.137-.339-.26,5.141-5.076.855.932,5.063-4.742,2,2.075,4.711L.234,29.548l3.105,4.106L0,37.572l3.969,3.279L1.623,45.433l4.618,2.275-1.225,5,5.018,1.149-.039,5.148,5.148-.039,1.149,5.018,5-1.225,2.275,4.618,4.583-2.345L31.428,69l3.918-3.339,4.106,3.105,3.042-4.153,4.711,2.075,2-4.742,5.063.932.855-5.076,5.141-.26-.339-5.137,4.943-1.439-1.514-4.92,4.478-2.54Z" fill="#f56e48"/>
    </g>
    <g id="Group_4173" data-name="Group 4173" transform="translate(291 289)">
      <text id="Redeemed_" data-name="Redeemed!" transform="translate(-3 9)" fill="#fff" font-size="11" font-family="Blinker-SemiBold, Blinker" font-weight="600"><tspan x="0" y="0">Redeemed!</tspan></text>
    </g>
  </g>
</svg>
