<svg xmlns="http://www.w3.org/2000/svg" width="29.686" height="29.687" viewBox="0 0 29.686 29.687">
  <g id="tick" transform="translate(-0.008 0)">
    <path id="Path_51201" data-name="Path 51201" d="M174.941,190.964a.9.9,0,0,1-1.23,0l-1.336-1.336-1.23,1.23,3.181,3.181,6.66-6.66-1.231-1.23Z" transform="translate(-161.214 -175.356)" fill="#ee8264"/>
    <path id="Path_51202" data-name="Path 51202" d="M28.3,8.884a11.677,11.677,0,0,0-2.184-1.569A11.678,11.678,0,0,0,25.5,4.7.87.87,0,0,0,25,4.19a11.678,11.678,0,0,0-2.619-.614,11.709,11.709,0,0,0-1.569-2.185.776.776,0,0,0-.663-.274,11.653,11.653,0,0,0-2.654.435A13.733,13.733,0,0,0,15.21.077a.865.865,0,0,0-.717,0,13.725,13.725,0,0,0-2.285,1.476,11.653,11.653,0,0,0-2.654-.435.767.767,0,0,0-.663.274A11.706,11.706,0,0,0,7.323,3.576,11.678,11.678,0,0,0,4.7,4.19.87.87,0,0,0,4.2,4.7a11.678,11.678,0,0,0-.614,2.619A11.708,11.708,0,0,0,1.4,8.884a.871.871,0,0,0-.274.663A11.653,11.653,0,0,0,1.561,12.2,13.727,13.727,0,0,0,.085,14.485a.872.872,0,0,0,0,.717,13.725,13.725,0,0,0,1.476,2.285,11.653,11.653,0,0,0-.435,2.654A.871.871,0,0,0,1.4,20.8a11.706,11.706,0,0,0,2.185,1.569A11.678,11.678,0,0,0,4.2,24.991.869.869,0,0,0,4.7,25.5a11.663,11.663,0,0,0,2.618.614,11.672,11.672,0,0,0,1.569,2.184.824.824,0,0,0,.663.274,11.642,11.642,0,0,0,2.653-.435,13.817,13.817,0,0,0,2.286,1.476.87.87,0,0,0,.717,0,13.789,13.789,0,0,0,2.285-1.476,11.653,11.653,0,0,0,2.654.435.815.815,0,0,0,.662-.274,11.677,11.677,0,0,0,1.569-2.184A11.663,11.663,0,0,0,25,25.5a.869.869,0,0,0,.507-.506,11.678,11.678,0,0,0,.614-2.619A11.672,11.672,0,0,0,28.3,20.8a.866.866,0,0,0,.274-.663,11.653,11.653,0,0,0-.435-2.654A13.727,13.727,0,0,0,29.617,15.2a.872.872,0,0,0,0-.717A13.724,13.724,0,0,0,28.142,12.2a11.653,11.653,0,0,0,.435-2.654A.867.867,0,0,0,28.3,8.884Zm-6.686,3.754-7.89,7.89a.869.869,0,0,1-1.23,0L8.086,16.117a.869.869,0,0,1,0-1.23l2.46-2.46a.869.869,0,0,1,1.23,0l1.336,1.336,4.814-4.815a.869.869,0,0,1,1.23,0l2.461,2.46A.87.87,0,0,1,21.616,12.638Z" transform="translate(0 0)" fill="#ee8264"/>
  </g>
</svg>
