<svg id="black-settings-button" xmlns="http://www.w3.org/2000/svg" width="24.913" height="24.913" viewBox="0 0 24.913 24.913">
  <path id="Path_51323" data-name="Path 51323" d="M24.913,12.457a2.471,2.471,0,0,0-1.491-2.206A3.423,3.423,0,0,1,21.57,8.684a3.443,3.443,0,0,1,.2-2.422,2.474,2.474,0,0,0-.508-2.615,2.474,2.474,0,0,0-2.615-.507,3.438,3.438,0,0,1-2.419.2A3.436,3.436,0,0,1,14.665,1.49,2.476,2.476,0,0,0,12.457,0a2.476,2.476,0,0,0-2.208,1.49A3.438,3.438,0,0,1,8.681,3.344a3.439,3.439,0,0,1-2.419-.2,2.474,2.474,0,0,0-2.615.507A2.474,2.474,0,0,0,3.14,6.262a3.436,3.436,0,0,1,.2,2.421A3.426,3.426,0,0,1,1.49,10.251,2.47,2.47,0,0,0,0,12.457a2.476,2.476,0,0,0,1.49,2.208,3.437,3.437,0,0,1,1.853,1.568,3.43,3.43,0,0,1-.2,2.418,2.474,2.474,0,0,0,.507,2.615,2.475,2.475,0,0,0,2.615.507,3.436,3.436,0,0,1,2.419-.2,3.446,3.446,0,0,1,1.567,1.855,2.476,2.476,0,0,0,2.208,1.488,2.476,2.476,0,0,0,2.208-1.488,3.448,3.448,0,0,1,1.566-1.855,3.432,3.432,0,0,1,2.42.2,2.38,2.38,0,0,0,3.122-3.122,3.44,3.44,0,0,1-.2-2.419,3.437,3.437,0,0,1,1.855-1.567A2.477,2.477,0,0,0,24.913,12.457ZM12.457,17.028a4.568,4.568,0,1,1,4.566-4.566A4.566,4.566,0,0,1,12.457,17.028Z" fill="#fff"/>
</svg>
