<svg xmlns="http://www.w3.org/2000/svg" width="192.587" height="149.266" viewBox="0 0 192.587 149.266">
  <g id="Group_3960" data-name="Group 3960" transform="translate(-96.485 -249.734)">
    <g id="party-popper" transform="translate(116 255.999)">
      <path id="Path_51238" data-name="Path 51238" d="M143.863,182.14l-23.358,13.853L50.42,215.69l-2.965-2.969-2.947-2.956,19.544-69.8,15.913-21.833,30.924,30.979Z" transform="translate(-32.077 -85.138)" fill="#402687"/>
      <path id="Path_51239" data-name="Path 51239" d="M151.468,262.078l-23.358,13.853-70.085,19.7-2.965-2.969,63.434-63.61Z" transform="translate(-39.683 -165.076)" fill="#ee8264"/>
      <path id="Path_51240" data-name="Path 51240" d="M206.138,150.342l-35.2,9.894V147.464H149.351l-.2-21.831h-.075l-21.308.2,0-21.627H114.482l9.991-35.69,40.795,40.876Z" transform="translate(-82.508 -49.381)" fill="#ee8264"/>
      <path id="Path_51241" data-name="Path 51241" d="M21.445,443.372a12.556,12.556,0,0,1-17.763,0l0,0a12.576,12.576,0,0,1,17.761-17.81l.01.01a12.608,12.608,0,0,1,0,17.8Z" transform="translate(0 -304.053)" fill="#fde56f"/>
      <g id="Group_3956" data-name="Group 3956" transform="translate(61.65 0)">
        <path id="Path_51242" data-name="Path 51242" d="M236.639,0l-8.1,2.139a26.2,26.2,0,0,1-7.806,24.25l5.743,6.113A34.521,34.521,0,0,0,236.639,0Z" transform="translate(-220.734 0)" fill="#1e006d"/>
        <path id="Path_51243" data-name="Path 51243" d="M329.739,39.593h8.375v8.4h-8.375Z" transform="translate(-299.294 -28.535)" fill="#fde56f"/>
        <path id="Path_51244" data-name="Path 51244" d="M454.42,133.687H462.8v8.4H454.42Z" transform="translate(-389.152 -96.349)" fill="#ffd371"/>
        <path id="Path_51245" data-name="Path 51245" d="M439.426,275.359H447.8v8.4h-8.376Z" transform="translate(-378.346 -198.452)" fill="#ffd371"/>
        <path id="Path_51246" data-name="Path 51246" d="M404.54,202.476c-13.137-4.5-23.7-2.134-30.25.64a36.722,36.722,0,0,0-11.394,7.4l6.018,5.841a29.1,29.1,0,0,1,8.962-5.637c7.485-3.073,15.546-3.171,23.959-.292Z" transform="translate(-323.19 -144.112)" fill="#1e006d"/>
        <path id="Path_51247" data-name="Path 51247" d="M347.13.3C343.981,14.239,336.3,25.877,324.3,34.892a66.148,66.148,0,0,1-17.5,9.552l1.257,4.006,1.249,4.008A73.118,73.118,0,0,0,329.063,41.81C342.652,31.689,351.724,17.977,355.3,2.157Z" transform="translate(-282.766 -0.217)" fill="#ee8264"/>
      </g>
      <path id="Path_51248" data-name="Path 51248" d="M34.617,443.952a12.563,12.563,0,0,1-21.445,8.9l0,0,17.761-17.81.01.01A12.521,12.521,0,0,1,34.617,443.952Z" transform="translate(-9.49 -313.535)" fill="#ffd371"/>
      <path id="Path_51249" data-name="Path 51249" d="M295.4,255.821l-35.2,9.894V252.942H238.614l-.2-21.831h-.075l16.194-16.239Z" transform="translate(-171.77 -154.86)" fill="#402687"/>
    </g>
    <g id="Group_3814" data-name="Group 3814" transform="translate(106.646 261.067) rotate(65)" opacity="0.08">
      <g id="Group_3813" data-name="Group 3813">
        <path id="Path_51095" data-name="Path 51095" d="M11.322,5.473A6.909,6.909,0,0,1,5.827.066c0-.089-.266-.089-.266,0A6.909,6.909,0,0,1,.066,5.473c-.089,0-.089.177,0,.266a6.909,6.909,0,0,1,5.495,5.406c0,.089.266.089.266,0a6.909,6.909,0,0,1,5.495-5.406C11.41,5.65,11.41,5.473,11.322,5.473Z" fill="#1e006d"/>
      </g>
    </g>
    <g id="Group_3816" data-name="Group 3816" transform="translate(289.072 357.794) rotate(138)" opacity="0.08">
      <g id="Group_3815" data-name="Group 3815" transform="translate(0 0)">
        <path id="Path_51096" data-name="Path 51096" d="M12.678,4.874H10.551V2.836A2.8,2.8,0,0,0,7.715,0,2.839,2.839,0,0,0,4.879,2.747V4.874H2.84A2.8,2.8,0,0,0,0,7.71,2.745,2.745,0,0,0,2.84,10.546H4.879v2.038a2.8,2.8,0,0,0,2.836,2.836,2.839,2.839,0,0,0,2.836-2.747V10.546h2.038A2.8,2.8,0,0,0,15.425,7.71,2.839,2.839,0,0,0,12.678,4.874Z" fill="#1e006d"/>
      </g>
    </g>
    <g id="Group_3820" data-name="Group 3820" transform="translate(274.017 386.376) rotate(138)" opacity="0.08">
      <g id="Group_3819" data-name="Group 3819">
        <path id="Path_51097" data-name="Path 51097" d="M3.013,0A3.013,3.013,0,1,0,6.027,3.013,3.013,3.013,0,0,0,3.013,0Z" fill="#1e006d"/>
      </g>
    </g>
    <g id="Group_3917" data-name="Group 3917" transform="translate(117.056 315.4) rotate(65)" opacity="0.08">
      <g id="Group_3815-2" data-name="Group 3815" transform="translate(0 0)">
        <path id="Path_51096-2" data-name="Path 51096" d="M12.678,4.874H10.551V2.836A2.8,2.8,0,0,0,7.715,0,2.839,2.839,0,0,0,4.879,2.747V4.874H2.84A2.8,2.8,0,0,0,0,7.71,2.745,2.745,0,0,0,2.84,10.546H4.879v2.038a2.8,2.8,0,0,0,2.836,2.836,2.839,2.839,0,0,0,2.836-2.747V10.546h2.038A2.8,2.8,0,0,0,15.425,7.71,2.839,2.839,0,0,0,12.678,4.874Z" fill="#1e006d"/>
      </g>
    </g>
    <g id="Group_3919" data-name="Group 3919" transform="translate(370.252 225.213) rotate(65)" opacity="0.08">
      <g id="Group_3819-2" data-name="Group 3819" transform="translate(-66.648 200.949)">
        <path id="Path_51097-2" data-name="Path 51097" d="M5.822,0a5.822,5.822,0,1,0,5.822,5.822A5.821,5.821,0,0,0,5.822,0Z" transform="translate(0 0)" fill="#1e006d"/>
      </g>
    </g>
  </g>
</svg>
