<svg xmlns="http://www.w3.org/2000/svg" xmlns:xlink="http://www.w3.org/1999/xlink" width="150" height="172.222" viewBox="0 0 150 172.222">
  <defs>
    <filter id="Rectangle_1846" x="0" y="0" width="150" height="145.111" filterUnits="userSpaceOnUse">
      <feOffset dy="3" input="SourceAlpha"/>
      <feGaussianBlur stdDeviation="3" result="blur"/>
      <feFlood flood-opacity="0.161"/>
      <feComposite operator="in" in2="blur"/>
      <feComposite in="SourceGraphic"/>
    </filter>
  </defs>
  <g id="Group_4184" data-name="Group 4184" transform="translate(-258 -346)">
    <g id="Group_4185" data-name="Group 4185">
      <g id="Group_4116" data-name="Group 4116" transform="translate(267 352)">
        <g id="Group_4118" data-name="Group 4118" transform="translate(0 0)">
          <g transform="matrix(1, 0, 0, 1, -9, -6)" filter="url(#Rectangle_1846)">
            <rect id="Rectangle_1846-2" data-name="Rectangle 1846" width="132" height="127.111" rx="32" transform="translate(9 6)" fill="#ee8265"/>
          </g>
          <path id="Polygon_1" data-name="Polygon 1" d="M23.467,0,46.933,22.489H0Z" transform="translate(90.933 139.822) rotate(180)" fill="#ee8265"/>
        </g>
      </g>
      <g id="Group_4124" data-name="Group 4124" transform="translate(288 370.336)" opacity="0.15">
        <g id="discount" transform="translate(0 0)">
          <g id="Group_3686" data-name="Group 3686">
            <g id="Group_3685" data-name="Group 3685">
              <g id="discount_1_" data-name="discount (1)">
                <path id="Path_50991" data-name="Path 50991" d="M85.683,44.9l3.94-10.276a2.81,2.81,0,0,0-.853-3.188l-8.542-6.926L78.5,13.644a2.805,2.805,0,0,0-2.335-2.329L65.294,9.586l-6.92-8.547A2.811,2.811,0,0,0,55.192.185L44.91,4.131,34.634.191a2.8,2.8,0,0,0-3.182.853L24.527,9.591,13.656,11.32a2.812,2.812,0,0,0-2.329,2.329L9.6,24.52,1.051,31.446A2.808,2.808,0,0,0,.2,34.628L4.137,44.9.2,55.18a2.8,2.8,0,0,0,.853,3.182L9.6,65.282l1.729,10.871a2.805,2.805,0,0,0,2.329,2.335l10.871,1.729,6.926,8.542a2.793,2.793,0,0,0,3.188.853l10.27-3.934,10.276,3.94a2.808,2.808,0,0,0,3.188-.859l6.92-8.542,10.871-1.729A2.811,2.811,0,0,0,78.5,76.153l1.729-10.871,8.542-6.92a2.8,2.8,0,0,0,.853-3.182Z" transform="translate(-0.01 0)" fill="#fff"/>
                <g id="Group_3694" data-name="Group 3694" transform="translate(28.063 22.452)">
                  <path id="Path_50992" data-name="Path 50992" d="M168.44,144.872a8.418,8.418,0,1,1,8.418-8.418A8.429,8.429,0,0,1,168.44,144.872Zm0-11.225a2.806,2.806,0,1,0,2.806,2.806A2.807,2.807,0,0,0,168.44,133.647Z" transform="translate(-160.022 -128.032)" fill="#fff"/>
                  <path id="Path_50993" data-name="Path 50993" d="M264.44,304.872a8.418,8.418,0,1,1,8.418-8.418A8.429,8.429,0,0,1,264.44,304.872Zm0-11.225a2.806,2.806,0,1,0,2.806,2.806A2.814,2.814,0,0,0,264.44,293.647Z" transform="translate(-239.185 -259.971)" fill="#fff"/>
                  <path id="Path_50994" data-name="Path 50994" d="M162.84,172.918a2.806,2.806,0,0,1-2.279-4.439l28.061-39.286a2.806,2.806,0,0,1,4.568,3.261L165.13,171.74A2.818,2.818,0,0,1,162.84,172.918Z" transform="translate(-160.034 -128.017)" fill="#fff"/>
                </g>
              </g>
            </g>
          </g>
          <g id="Group_3688" data-name="Group 3688" transform="translate(51.638 55.495)">
            <g id="Group_3687" data-name="Group 3687">
              <path id="Path_50988" data-name="Path 50988" d="M295.267,310.141a4.815,4.815,0,1,0,4.815,4.815A4.821,4.821,0,0,0,295.267,310.141Z" transform="translate(-290.452 -310.141)" fill="#fff"/>
            </g>
          </g>
          <g id="Group_3690" data-name="Group 3690" transform="translate(28.525 24.677)">
            <g id="Group_3689" data-name="Group 3689">
              <path id="Path_50989" data-name="Path 50989" d="M177.148,152.646a4.815,4.815,0,1,0,4.815,4.815A4.821,4.821,0,0,0,177.148,152.646Z" transform="translate(-172.333 -152.646)" fill="#fff"/>
            </g>
          </g>
        </g>
        <path id="Path_50990" data-name="Path 50990" d="M34.289,0A34.29,34.29,0,1,1,0,34.29,34.29,34.29,0,0,1,34.289,0Z" transform="translate(11.739 11.507)" fill="#fff"/>
      </g>
      <text id="T" transform="translate(321 431.178)" fill="#fff" font-size="46" font-family="Gilroy-Medium, Gilroy" font-weight="500"><tspan x="0" y="0">T</tspan></text>
      <circle id="Ellipse_36" data-name="Ellipse 36" cx="7.822" cy="7.822" r="7.822" transform="translate(326.645 502.578)" fill="#ee8265"/>
    </g>
  </g>
</svg>
